<?xml version="1.0" encoding="UTF-8"?>
<svg xmlns="http://www.w3.org/2000/svg" width="525" height="113">
   <defs>
      <style type="text/css">
        @namespace "http://www.w3.org/2000/svg";
        .line {fill: none; stroke: #332900;}
        .bold-line {stroke: #141000; shape-rendering: crispEdges; stroke-width: 2;}
        .thin-line {stroke: #1F1800; shape-rendering: crispEdges;}
        .filled {fill: #332900; stroke: none;}
        text.terminal {
          font-family: Verdana, Sans-serif;
          font-size: 12px;
          fill: #141000;
          font-weight: bold;
        }
        text.nonterminal {
          font-family: Verdana, Sans-serif;
          font-size: 12px;
          fill: #1A1400;
          font-weight: normal;
        }
        text.regexp {
          font-family: Verdana, Sans-serif;
          font-size: 12px;
          fill: #1F1800;
          font-weight: normal;
        }
        rect, circle, polygon {fill: #332900; stroke: #332900;}
        rect.terminal {fill: #FFDB4D; stroke: #332900;}
        rect.nonterminal {fill: #FFEC9E; stroke: #332900;}
        rect.text {fill: none; stroke: none;}
        polygon.regexp {fill: #FFF4C7; stroke: #332900;}
      </style>
   </defs>
   <polygon points="9 61 1 57 1 65"/>
   <polygon points="17 61 9 57 9 65"/>
   <rect x="31" y="47" width="28" height="32" rx="10"/>
   <rect x="29"
         y="45"
         width="28"
         height="32"
         class="terminal"
         rx="10"/>
   <text class="terminal" x="39" y="65">if</text>
   <a xmlns:xlink="http://www.w3.org/1999/xlink"
      xlink:href="#test"
      xlink:title="test">
      <rect x="99" y="47" width="44" height="32"/>
      <rect x="97" y="45" width="44" height="32" class="nonterminal"/>
      <text class="nonterminal" x="107" y="65">test</text>
   </a>
   <rect x="163" y="47" width="24" height="32" rx="10"/>
   <rect x="161"
         y="45"
         width="24"
         height="32"
         class="terminal"
         rx="10"/>
   <text class="terminal" x="171" y="65">:</text>
   <a xmlns:xlink="http://www.w3.org/1999/xlink"
      xlink:href="#suite"
      xlink:title="suite">
      <rect x="207" y="47" width="50" height="32"/>
      <rect x="205" y="45" width="50" height="32" class="nonterminal"/>
      <text class="nonterminal" x="215" y="65">suite</text>
   </a>
   <rect x="99" y="3" width="40" height="32" rx="10"/>
   <rect x="97"
         y="1"
         width="40"
         height="32"
         class="terminal"
         rx="10"/>
   <text class="terminal" x="107" y="21">elif</text>
   <rect x="317" y="79" width="46" height="32" rx="10"/>
   <rect x="315"
         y="77"
         width="46"
         height="32"
         class="terminal"
         rx="10"/>
   <text class="terminal" x="325" y="97">else</text>
   <rect x="383" y="79" width="24" height="32" rx="10"/>
   <rect x="381"
         y="77"
         width="24"
         height="32"
         class="terminal"
         rx="10"/>
   <text class="terminal" x="391" y="97">:</text>
   <a xmlns:xlink="http://www.w3.org/1999/xlink"
      xlink:href="#suite"
      xlink:title="suite">
      <rect x="427" y="79" width="50" height="32"/>
      <rect x="425" y="77" width="50" height="32" class="nonterminal"/>
      <text class="nonterminal" x="435" y="97">suite</text>
   </a>
   <svg:path xmlns:svg="http://www.w3.org/2000/svg"
             class="line"
             d="m17 61 h2 m0 0 h10 m28 0 h10 m20 0 h10 m44 0 h10 m0 0 h10 m24 0 h10 m0 0 h10 m50 0 h10 m-198 0 l20 0 m-1 0 q-9 0 -9 -10 l0 -24 q0 -10 10 -10 m178 44 l20 0 m-20 0 q10 0 10 -10 l0 -24 q0 -10 -10 -10 m-178 0 h10 m40 0 h10 m0 0 h118 m40 44 h10 m0 0 h170 m-200 0 h20 m180 0 h20 m-220 0 q10 0 10 10 m200 0 q0 -10 10 -10 m-210 10 v12 m200 0 v-12 m-200 12 q0 10 10 10 m180 0 q10 0 10 -10 m-190 10 h10 m46 0 h10 m0 0 h10 m24 0 h10 m0 0 h10 m50 0 h10 m23 -32 h-3"/>
   <polygon points="515 61 523 57 523 65"/>
   <polygon points="515 61 507 57 507 65"/>
</svg>
